<svg xmlns="http://www.w3.org/2000/svg" xmlns:xlink="http://www.w3.org/1999/xlink" viewBox="0 0 16 16"><defs><style>.cls-1{isolation:isolate;}.cls-2{fill:url(#linear-gradient);}.cls-3{fill:#232323;}.cls-4{mix-blend-mode:multiply;opacity:0.84;}.cls-5{fill:#fff;}</style><linearGradient id="linear-gradient" x1="0.2" y1="8" x2="15.8" y2="8" gradientUnits="userSpaceOnUse"><stop offset="0" stop-color="#ee885b"/><stop offset="1"/></linearGradient></defs><g class="cls-1"><g id="Layer_1" data-name="Layer 1"><ellipse class="cls-2" cx="8" cy="8" rx="7.8" ry="7.74"/><path class="cls-3" d="M8,.79A7.21,7.21,0,1,1,.74,8,7.25,7.25,0,0,1,8,.79M8,.26A7.74,7.74,0,1,0,15.8,8,7.77,7.77,0,0,0,8,.26Z"/><g class="cls-4"><path d="M7,12.39H5.92L4.23,10.71v-5L5.92,4H7Zm.45-6.7V4h3l1.69,1.68V7.37H9.36V5.69Zm0,6.7V10.71H9.36V9.49h2.81v1.22l-1.69,1.68Z"/><path d="M10.51,12.45H7.42v-1.8H9.29V9.42h2.94v1.32Zm-3-.13h2.9l1.65-1.63V9.56H9.42v1.22H7.55Zm-.44.13H5.9L4.17,10.74V5.66L5.9,4H7.11ZM6,12.32H7V4.08H6L4.3,5.71v5Zm6.28-4.88H9.29V5.75H7.42V4h3.09l1.72,1.71ZM9.42,7.3H12.1V5.71L10.45,4.08H7.55V5.62H9.42Z"/></g><path class="cls-5" d="M6.64,12H5.53l-1.7-1.68v-5l1.7-1.68H6.64Zm.45-6.7V3.61h3l1.69,1.68V7H9V5.29Zm0,6.7V10.31H9V9.09h2.81v1.22L10.08,12Z"/><path d="M10.11,12.05H7v-1.8H8.89V9h2.94v1.32Zm-2.95-.13h2.89l1.65-1.63V9.16H9v1.22H7.16Zm-.45.13H5.5L3.77,10.34V5.26L5.5,3.55H6.71Zm-1.16-.13h1V3.68h-1L3.9,5.31v5ZM11.83,7H8.89V5.35H7V3.55h3.09l1.72,1.71ZM9,6.9H11.7V5.31L10.05,3.68H7.16V5.22H9Z"/></g></g></svg>